<?xml version="1.0" encoding="utf-8"?>
<!-- Generator: Adobe Illustrator 28.0.0, SVG Export Plug-In . SVG Version: 6.00 Build 0)  -->
<svg version="1.1" id="Layer_1" xmlns="http://www.w3.org/2000/svg" xmlns:xlink="http://www.w3.org/1999/xlink" x="0px" y="0px"
	 viewBox="0 0 162 53" style="enable-background:new 0 0 162 53;" xml:space="preserve">
<style type="text/css">
	.st0{fill:#FFFFFF;}
	.st1{fill:#1A1C23;}
	.st2{fill:#148EFF;}
</style>
<rect class="st0" width="162" height="53"/>
<g>
	<path class="st1" d="M62.2,32l-5.2-10.5c-0.3-0.5-0.8-0.8-1.4-0.8h-2.7c-0.6,0-1.1,0.3-1.4,0.8L46.3,32c-0.1,0.1,0,0.3,0.1,0.4
		c0,0,0.1,0,0.1,0h2.3c0.1,0,0.3-0.1,0.3-0.2l1.2-2.3h7.7l1.2,2.3c0.1,0.1,0.2,0.2,0.3,0.2h2.3C62.1,32.4,62.2,32.2,62.2,32
		C62.2,32,62.2,32,62.2,32z M51.5,27.5l2.2-4.4c0.1-0.1,0.2-0.2,0.3-0.2h0.5c0.1,0,0.2,0.1,0.3,0.2l2.2,4.4H51.5z M161.5,20.9v1.8
		c0,0.2-0.1,0.3-0.3,0.3h-4.7v10.6c0,0.1-0.1,0.2-0.2,0.2c0,0-0.1,0-0.1,0l-2.4-2c-0.2-0.2-0.3-0.4-0.3-0.6V23h-3.8
		c-0.2,0-0.4-0.1-0.5-0.3l-0.9-1.8c0-0.1,0-0.1,0-0.2c0,0,0,0,0.1,0h12.7C161.4,20.7,161.5,20.8,161.5,20.9z M136.2,23.2v2.2h8.6
		c0.6,0,1.2,0.6,1.1,1.2c0,0.6-0.5,1.1-1.1,1.1h-8.6v1.6c0,0.4,0.3,0.7,0.7,0.7h9.7c0.2,0,0.3,0.1,0.3,0.3v1.8
		c0,0.2-0.1,0.3-0.3,0.3h-10.5c-1.6,0-3-1.3-3-3v-7.2c0-0.8,0.7-1.5,1.5-1.5c0,0,0,0,0,0h12c0.2,0,0.3,0.1,0.3,0.3v1.8
		c0,0.2-0.1,0.3-0.3,0.3h-10.3C136.3,23,136.2,23.1,136.2,23.2z M130.6,21v10.3c0,0.8-0.7,1.5-1.5,1.5c-0.3,0-0.7-0.1-0.9-0.3
		l-9.1-7.7V32c0,0.2-0.2,0.4-0.4,0.4c0,0,0,0,0,0h-2.3c-0.2,0-0.4-0.2-0.4-0.4V21.8c0-0.8,0.7-1.5,1.5-1.5c0.3,0,0.7,0.1,0.9,0.3
		l9.1,7.7V21c0-0.2,0.2-0.4,0.4-0.4h2.3C130.5,20.7,130.6,20.8,130.6,21C130.6,21,130.6,21,130.6,21z M102.4,23.2v2.2h6
		c0.6,0,1.2,0.6,1.1,1.2c0,0.6-0.5,1.1-1.1,1.1h-6v1.6c0,0.4,0.3,0.7,0.7,0.7h9.7c0.2,0,0.3,0.1,0.3,0.3v1.8c0,0.2-0.1,0.3-0.3,0.3
		h-10.5c-1.6,0-3-1.3-3-3v-7.2c0-0.8,0.7-1.5,1.5-1.5c0,0,0,0,0,0h12c0.2,0,0.3,0.1,0.3,0.3v1.8c0,0.2-0.1,0.3-0.3,0.3h-10.3
		C102.5,23,102.4,23.1,102.4,23.2z M98.1,30.3v1.8c0,0.2-0.1,0.3-0.3,0.3h-8.4c-1.6,0-3-1.3-3-3v-8.4c0-0.2,0.1-0.3,0.3-0.3h2.5
		c0.2,0,0.3,0.1,0.3,0.3v8.3c0,0.4,0.3,0.7,0.7,0.7h7.6C98,30,98.1,30.2,98.1,30.3L98.1,30.3z M84.8,20.9v1.8c0,0.2-0.1,0.3-0.3,0.3
		h-4.4v10.6c0,0.1-0.1,0.2-0.2,0.2c0,0-0.1,0-0.1,0l-2.4-2c-0.2-0.2-0.3-0.4-0.3-0.6V23h-2.9c-0.2,0-0.4-0.1-0.5-0.3l-0.9-1.8
		c0-0.1,0-0.2,0.1-0.2h11.5C84.7,20.7,84.8,20.8,84.8,20.9z M43.1,26.4c0.5-0.2,1.7-0.7,1.7-2.2c0-2.6-1.9-3.5-4.2-3.5h-8.7
		c-0.2,0-0.3,0.1-0.3,0.3v11.1c0,0.2,0.1,0.3,0.3,0.3h9.8c1.4,0,3.5-0.8,3.5-3.5C45.1,27.2,43.7,26.6,43.1,26.4z M34.5,23.2
		c0-0.1,0.1-0.2,0.2-0.2c0,0,0,0,0,0h5.4c0.6,0,1.8,0,1.8,1.2s-1.3,1.2-1.8,1.2h-5.5V23.2z M40.8,30h-6c-0.1,0-0.2-0.1-0.2-0.2
		c0,0,0,0,0,0v-2.1h6.2c0.6,0,1.6,0,1.6,1.2C42.3,30.1,41.2,30,40.8,30z M71.4,20.9v1.8c0,0.2-0.1,0.3-0.3,0.3h-3.5v10.6
		c0,0.1-0.1,0.2-0.2,0.2c0,0-0.1,0-0.1,0l-2.4-2c-0.2-0.2-0.3-0.4-0.3-0.6V23H61c-0.2,0-0.4-0.1-0.5-0.3l-0.9-1.8
		c0-0.1,0-0.2,0.1-0.2c0,0,0,0,0,0h11.4C71.3,20.7,71.4,20.8,71.4,20.9z"/>
	<path class="st2" d="M114.2,26.5c0,0.8-0.7,1.5-1.5,1.5c-0.8,0-1.5-0.7-1.5-1.5c0-0.8,0.7-1.5,1.5-1.5
		C113.5,25,114.2,25.7,114.2,26.5C114.2,26.5,114.2,26.5,114.2,26.5z M21.7,17c0-0.1,0-0.2,0.1-0.2c0.1,0,0.2,0.2,0.2,0.3
		c0.5,1.6,0.4,3.7-0.4,5.9c2.9,1.6,4.6,3.6,4.3,5.5c-0.4,2.5-4.1,4-9,3.8c0.5-0.5,1.1-1.3,1.6-1.9c1.9-0.4,3.3-1.1,3.6-2.3
		c0.3-0.9-0.3-1.8-1.5-2.8c-1.9,4-5,7.5-7.9,9.5c1.4,1.8,2.7,3,4.2,3.7c0.1,0,0.2,0.1,0.1,0.2c0,0.1-0.3,0.1-0.4,0
		c-1.7-0.4-3.4-1.5-5-3.3c-2.8,1.8-5.4,2.2-6.9,1c-2-1.6-1.4-5.5,1.2-9.7c0.2,0.7,0.5,1.6,0.9,2.4c-0.6,1.8-0.7,3.4,0.2,4.3
		c0.6,0.7,1.8,0.6,3.1,0.1C7.9,30,6.3,25.5,6,22c-2.3,0.3-4,0.8-5.3,1.8c-0.1,0-0.2,0.1-0.2,0c0-0.1,0.1-0.3,0.1-0.3
		c1.2-1.3,3-2.2,5.3-2.7c-0.1-3.3,0.8-5.8,2.6-6.5c2.4-0.9,5.5,1.5,7.8,5.9c-0.7-0.2-1.7-0.3-2.5-0.5c-1.3-1.5-2.6-2.3-3.8-2
		C9.1,18,8.6,19,8.4,20.5c4.4-0.4,9,0.6,12.2,2.1C21.4,20.4,21.9,18.7,21.7,17z M11.5,33c3.5-2,6.3-5,8.1-8.5l0,0
		c-3.4-2-7.5-2.9-11.4-2.8l0,0C8.2,25.8,9.4,29.7,11.5,33L11.5,33z"/>
</g>
</svg>
