<svg id="Icon" xmlns="http://www.w3.org/2000/svg" viewBox="0 0 905.21 1000"><defs><style>.cls-1{fill:#fff;}</style></defs><polygon class="cls-1" points="75.96 611.22 75.96 741.13 228.57 741.13 228.57 803.93 75.96 803.93 75.96 987.79 3 987.79 3 548.41 240.81 548.41 240.81 611.22 75.96 611.22"/><path class="cls-1" d="M599.9,684.72q0,41.67-20.87,74.92T520,811.29q-38.36,18.42-87.68,18.4H380.2V987.76h-73V548.39H443q75.72,0,116.28,35.25T599.9,684.72m-76.6,2.48q0-37.05-23.79-57.12T430.42,610H380.2V768.1h46.87q45.32,0,70.79-20.53T523.3,687.2"/><path class="cls-1" d="M900.5,871.66q0,57.87-41.37,90.84t-115.49,33q-27.54,0-58.86-8c-20.79-5.3-36.15-11.2-45.92-17.75V890q19.27,18.11,50.87,30.64c21,8.38,41.67,12.59,61.85,12.59q34,0,52.26-13.93c12.15-9.33,18.23-22.83,18.23-40.63,0-15.32-6-29.3-18.1-42s-34.9-28-68.62-46c-33-17.36-57.73-36-73.83-55.91s-24.18-43.57-24.18-71q0-35.22,18.32-63.24,18.48-28.06,52.73-43.84t77.82-15.75a284.24,284.24,0,0,1,56.08,5.51c18.36,3.69,31.47,7.46,39.24,11.33v76.6c-11.63-9.63-26-17.18-43.1-22.83a163.15,163.15,0,0,0-51.61-8.42c-21.87,0-39.23,5.13-52.21,15.33s-19.49,23.48-19.49,39.8c0,11.45,2.17,21.26,6.42,29.42s11.07,15.93,20.28,23.31,25.82,17.36,49.91,30Q850,771.42,875.24,802t25.26,69.71"/><path class="cls-1" d="M174,4.45V453.63H102.91V91.47q-36.47,26-92.24,40.45V71.24q41.67-13.8,72.44-29.55A486.83,486.83,0,0,0,144,4.45Z"/><path class="cls-1" d="M518.73,453.63H242.94v-34q0-38.53,22.09-74.3t81.17-82.86q37.95-30,56.68-48.57t27.91-38A94.74,94.74,0,0,0,440,135q0-33.07-19.49-51.48T367.94,65.13q-27,0-54.82,12.54t-53.6,37.72V47c18.14-13.67,36.81-23.78,55.86-30.34s41-9.76,65.45-9.76q61.59,0,96.4,31.68t34.77,89q0,33.41-11.2,61t-34.51,52.52q-23.24,25-82.38,71-34.37,26.64-48.87,45t-14.54,34v1.52H518.73Z"/><path class="cls-1" d="M850,231.5q0,110.28-40.45,170.05T694.93,461.27q-71.35,0-109.37-56.51t-38-162.54q0-115.5,40.1-175.44T704.44,6.89Q850,6.89,850,231.5m-72.31,4.9q0-88-18.53-129.9t-57.77-42q-81.78,0-81.82,175.86,0,80.87,20.4,121.92t59.9,41.06c25.78,0,45-14.19,57.9-42.57s19.31-69.88,19.31-124.4Z"/></svg>