<?xml version="1.0" encoding="utf-8"?>
<!-- Generator: Adobe Illustrator 24.0.0, SVG Export Plug-In . SVG Version: 6.00 Build 0)  -->
<svg version="1.1" id="Layer_1" xmlns="http://www.w3.org/2000/svg" xmlns:xlink="http://www.w3.org/1999/xlink" x="0px" y="0px"
	 viewBox="0 0 89 34" style="enable-background:new 0 0 89 34;" xml:space="preserve">
<style type="text/css">
	.st0{fill:#FFFFFF;}
</style>
<g>
	<path class="st0" d="M80.7,9.9c0-1.5-0.5-2.7-1.6-3.6C78,5.4,76.5,5,74.6,5h-4.5v10.5h4.4c1.8,0,3.3-0.5,4.4-1.6
		C80,12.8,80.7,11.5,80.7,9.9 M81.4,33.6L77.3,24c-1.1-2.6-2.7-3.9-4.7-3.9H70v13.5h-5.6V0.4h10.9c3.5,0,6.3,0.8,8.2,2.4
		c2,1.6,2.9,3.8,2.9,6.6c0,2.3-0.7,4.3-2,5.9s-3.1,2.7-5.5,3.3v0.1c0.7,0.2,1.4,0.8,2.1,1.6c0.7,0.8,1.3,1.7,1.7,2.6l5.2,10.9h-6.5
		V33.6z"/>
	<polygon class="st0" points="22.2,0.4 22.2,14.4 6.4,14.4 6.4,0.4 0.8,0.4 0.8,33.6 6.4,33.6 6.4,19.2 22.2,19.2 22.2,33.6 
		27.9,33.6 27.9,0.4 	"/>
	<path class="st0" d="M55.2,16.7c0-3.7-1.1-6.6-3.2-8.6c-2.2-2-5.2-3-9.2-3h-4.6v23.7h4.6c3.9,0,7-1.1,9.2-3.2S55.2,20.5,55.2,16.7
		 M61.2,16.6c0,3.4-0.8,6.4-2.3,9s-3.6,4.6-6.4,6c-2.8,1.4-6,2.1-9.7,2.1H32.6V0.4h10.5c6,0,10.6,1.4,13.6,4.1
		C59.7,7.3,61.2,11.3,61.2,16.6"/>
</g>
</svg>
