<?xml version="1.0" encoding="utf-8"?>
<!-- Generator: Adobe Illustrator 28.2.0, SVG Export Plug-In . SVG Version: 6.00 Build 0)  -->
<svg version="1.1" id="Layer_1" xmlns="http://www.w3.org/2000/svg" xmlns:xlink="http://www.w3.org/1999/xlink" x="0px" y="0px"
	 viewBox="0 0 145 24" style="enable-background:new 0 0 145 24;" xml:space="preserve">
<style type="text/css">
	.st0{clip-path:url(#SVGID_00000088848860344496023880000007469166901886276992_);}
	.st1{fill:#FFFFFF;}
</style>
<g>
	<defs>
		<rect id="SVGID_1_" x="0.2" width="144.5" height="24"/>
	</defs>
	<clipPath id="SVGID_00000009551799206628898260000005948139543099199377_">
		<use xlink:href="#SVGID_1_"  style="overflow:visible;"/>
	</clipPath>
	<g style="clip-path:url(#SVGID_00000009551799206628898260000005948139543099199377_);">
		<path class="st1" d="M12.6,9.7C12.6,9.6,12.6,9.6,12.6,9.7c3.7,2.7,10,9.5,8.1,11.4c-4.7,4-11.5,4-16.2,0
			C2.5,19.1,8.8,12.4,12.6,9.7L12.6,9.7 M19,1.8c-4-2.3-8.9-2.3-12.8,0v0.1h0.1c2.4-0.5,6,1.5,6.4,1.7l0,0l0,0
			C12.9,3.3,16.5,1.4,19,1.8L19,1.8C19,1.8,19,1.8,19,1.8 M3.9,3.4C3.9,3.4,3.9,3.4,3.9,3.4C-0.5,7.7-1,14.5,2.8,19.3
			c0,0,0.1,0.1,0.1,0v-0.1C1.9,16.4,6.7,9.5,9.2,6.6c0,0,0,0,0-0.1c0,0,0,0,0-0.1C5.4,2.9,4.2,3.3,3.9,3.4 M15.9,6.6L15.9,6.6
			C15.9,6.6,15.9,6.6,15.9,6.6c2.5,2.9,7.3,9.8,6.3,12.6v0.1h0.1c3.8-4.7,3.3-11.6-1.1-15.8l-0.1-0.1C21,3.3,19.7,3,15.9,6.6
			 M54.5,5h-2.6l-5.8,14.5h2.3l1.5-3.8h6.6l1.5,3.8h2.3L54.5,5z M50.6,13.7l2.6-6.6l2.6,6.6H50.6z M45,11.8v7.6h-2.1v-1.9
			c-0.5,0.7-1.2,1.3-2,1.7c-0.9,0.4-1.8,0.6-2.8,0.6c-1,0-2-0.2-2.9-0.5c-0.8-0.4-1.6-0.9-2.2-1.6c-0.6-0.7-1.1-1.5-1.5-2.4
			c-0.3-1-0.5-2-0.5-3.1s0.2-2.1,0.5-3.1c0.3-0.9,0.8-1.7,1.5-2.4s1.4-1.2,2.3-1.6c0.9-0.4,1.9-0.5,2.9-0.5c1.6-0.1,3.2,0.4,4.5,1.4
			c1.1,0.9,1.9,2.2,2.1,3.7l0,0h-2.3l0,0C42.3,8.8,41.8,8,41,7.4c-0.8-0.6-1.8-0.9-2.8-0.8c-1.4-0.1-2.7,0.5-3.5,1.5
			c-0.9,1.1-1.4,2.6-1.3,4.1c-0.1,1.5,0.4,2.9,1.3,4.1c0.9,1,2.2,1.6,3.5,1.5c1.2,0.1,2.3-0.4,3.2-1.1c0.8-0.7,1.4-1.8,1.4-2.9h-4.3
			v-1.9C38.5,11.8,45,11.8,45,11.8z M81.2,6.9v4.2h7.4v1.8h-7.4v4.4h8.3v2H78.9V5h10.6v2H81.2z M76.7,5v14.4h-2.2V7.9
			c-0.3,0.8-0.7,1.8-1.1,3L70,19.4h-1.9l0,0l-3.4-8.5c-0.4-1-0.8-2-1.1-2.9v11.4h-2.2V5h3.1l3,7.7c0.6,1.6,1.1,2.9,1.5,4
			c0.5-1.3,0.9-2.7,1.5-4.2L73.6,5L76.7,5z M105.2,6.2c-1-0.9-2.4-1.3-3.8-1.3h-6.3v14.4h2.2v-5.3h4c1.4,0.1,2.7-0.4,3.8-1.3
			c0.9-0.8,1.4-2.1,1.4-3.3C106.6,8.3,106.1,7,105.2,6.2 M97.4,6.9h4c0.8-0.1,1.5,0.2,2.1,0.7c0.5,0.5,0.8,1.2,0.7,1.9
			c0.1,0.7-0.2,1.4-0.7,1.9c-0.6,0.5-1.4,0.7-2.1,0.7h-4L97.4,6.9z M131.6,15.4c0.1,1.3-0.5,2.5-1.5,3.2c-1,0.8-2.5,1.1-4.2,1.1
			c-1.9,0-3.5-0.4-4.5-1.3c-1.1-0.9-1.8-2.3-1.7-3.8l0,0h2.2l0,0c-0.1,0.9,0.4,1.8,1,2.4c0.9,0.6,1.9,0.9,3,0.8
			c0.9,0.1,1.7-0.2,2.5-0.6c0.6-0.4,0.9-1,0.9-1.8c0.1-0.6-0.3-1.1-0.7-1.5c-0.8-0.5-1.7-0.8-2.6-0.9l-1.3-0.3
			c-1.3-0.2-2.5-0.7-3.4-1.5c-0.8-0.7-1.2-1.7-1.1-2.8c-0.1-1.1,0.5-2.2,1.4-2.9c1.1-0.7,2.5-1.1,3.8-1c1.9,0,3.4,0.4,4.4,1.2
			c1,0.8,1.6,2.1,1.5,3.3l0,0H129l0,0c0-0.8-0.4-1.5-0.9-2c-0.6-0.4-1.5-0.6-2.7-0.6c-0.8-0.1-1.5,0.2-2.2,0.5
			c-0.5,0.3-0.8,0.9-0.8,1.5c-0.1,0.6,0.2,1.1,0.7,1.5c0.8,0.5,1.6,0.8,2.5,0.9l1.3,0.3c1.7,0.4,2.9,0.8,3.7,1.5
			C131.2,13.4,131.6,14.4,131.6,15.4 M144.8,15.4c0.1,1.3-0.5,2.5-1.5,3.2c-1,0.8-2.5,1.1-4.2,1.1c-1.9,0-3.5-0.4-4.6-1.3
			c-1.1-0.9-1.7-2.3-1.7-3.8l0,0h2.2l0,0c-0.1,0.9,0.4,1.8,1,2.4c0.9,0.6,1.9,0.9,3,0.8c0.9,0.1,1.8-0.2,2.5-0.6
			c0.6-0.4,0.9-1,0.9-1.8c0-0.6-0.3-1.1-0.7-1.5c-0.8-0.5-1.7-0.8-2.6-0.9l-1.3-0.3c-1.3-0.2-2.5-0.7-3.4-1.5
			c-0.8-0.7-1.2-1.7-1.1-2.8c-0.1-1.1,0.5-2.2,1.4-2.9c1.1-0.7,2.5-1.1,3.8-1c1.9,0,3.4,0.4,4.4,1.2c1,0.8,1.6,2.1,1.5,3.3l0,0h-2.2
			l0,0c0-0.8-0.4-1.5-0.9-2c-0.6-0.4-1.5-0.6-2.7-0.6c-0.8-0.1-1.5,0.2-2.2,0.5c-0.5,0.3-0.8,0.9-0.8,1.5c-0.1,0.6,0.2,1.1,0.7,1.5
			c0.8,0.5,1.6,0.8,2.5,0.9l1.3,0.3c1.7,0.4,2.9,0.8,3.7,1.5C144.4,13.4,144.8,14.4,144.8,15.4 M113.3,5h-2.6L105,19.4h2.3l1.5-3.8
			h6.6l1.4,3.8h2.3L113.3,5z M109.4,13.7l2.6-6.6l2.6,6.6H109.4z"/>
	</g>
</g>
</svg>
