<?xml version="1.0" encoding="UTF-8"?>
<svg id="Layer_1" data-name="Layer 1" xmlns="http://www.w3.org/2000/svg" viewBox="0 0 96 16">
  <defs>
    <style>
      .cls-1 {
        fill: #fff;
      }
    </style>
  </defs>
  <path id="e72f" class="cls-1" d="m19.83,4.81c.04.33.09.68.17,1.03.07.35.16.7.25,1.06s.18.7.28,1.04.18.67.28.99h-2.06c.16-.59.31-1.18.46-1.76s.3-1.17.44-1.76c.02-.1.04-.2.06-.29s.04-.19.06-.29h.07ZM.44,0h95.11v16H.44V0Zm12.94,12.49v-5.76h-5.29v2.45h2.06v1.53c-.13.03-.27.04-.4.04-.14,0-.27,0-.4.01-.39,0-.77-.06-1.12-.21-.31-.13-.58-.34-.79-.6-.21-.26-.37-.57-.44-.9-.09-.37-.14-.76-.15-1.14,0-.42.06-.83.19-1.22.12-.35.31-.67.56-.94.25-.28.57-.49.92-.61.4-.14.81-.22,1.24-.22.5,0,1,.04,1.49.14.49.1.97.26,1.43.46v-2.82c-.49-.12-.98-.21-1.47-.28-.5-.07-1.01-.1-1.51-.11-.84,0-1.67.11-2.47.36-.73.23-1.41.59-2,1.08-.58.48-1.03,1.1-1.32,1.79-.32.79-.49,1.63-.49,2.49-.02.81.13,1.62.43,2.38.27.64.68,1.22,1.21,1.68.54.47,1.18.8,1.88.99.77.21,1.57.32,2.38.32.33,0,.67-.02,1-.06.37-.04.74-.09,1.11-.17.37-.07.74-.17,1.1-.28.31-.09.61-.22.89-.39Zm8.49.71h3.5l-3.47-10.72h-4.01l-3.69,10.72h3.49l.51-1.97h3.21l.47,1.97Zm17.78,0V2.47h-4.76l-1.38,5.79c-.06.27-.12.54-.15.81s-.07.54-.11.81h-.04c-.02-.26-.05-.52-.08-.79-.04-.27-.09-.53-.17-.79l-1.47-5.82h-4.83v10.72h2.83v-5.06c0-.53-.01-1.05-.04-1.57-.03-.52-.05-1.04-.07-1.57h.1c.05.3.1.6.15.9.06.3.12.61.19.92l1.65,6.38h3.04c.33-1.37.67-2.73,1.01-4.08.34-1.35.65-2.72.93-4.11h.09c0,.39-.02.77-.04,1.15s-.03.77-.03,1.17v5.88h3.18Zm9.06,0v-2.53h-3.69v-1.58h3.24v-2.53h-3.24v-1.55h3.44v-2.53h-6.68v10.72h6.93Zm14.57-7.19c.02-.6-.09-1.19-.33-1.74-.2-.43-.52-.8-.92-1.07-.42-.27-.89-.46-1.38-.56-.57-.12-1.15-.17-1.74-.17h-4.4v10.72h3.24v-3.44h.99c.57,0,1.13-.07,1.68-.22.52-.14,1.01-.37,1.46-.68.43-.3.78-.7,1.01-1.17.25-.52.38-1.1.39-1.68Zm8.01,7.19h3.51l-3.47-10.72h-4.01l-3.69,10.72h3.49l.51-1.97h3.21l.46,1.97Zm12.24-3.25c.02-.48-.09-.95-.32-1.38-.21-.37-.49-.69-.82-.96-.32-.26-.68-.48-1.07-.64-.38-.16-.74-.32-1.07-.49-.28-.14-.56-.3-.82-.47-.2-.12-.32-.34-.33-.57,0-.13.03-.26.11-.36.08-.1.19-.18.31-.24.12-.06.25-.1.39-.11.13-.01.26-.02.39-.04.47,0,.93.06,1.38.19.45.13.88.31,1.29.54v-2.74c-.5-.12-.99-.22-1.46-.29-.5-.08-1.01-.11-1.51-.11-.53,0-1.06.06-1.58.18-.5.11-.97.32-1.39.6-.41.28-.75.64-1,1.07-.27.48-.4,1.02-.38,1.57-.02.5.09.99.31,1.43.2.36.47.68.79.94.31.25.66.46,1.03.61.36.15.7.3,1.03.44.28.12.55.28.79.46.2.15.32.38.32.62,0,.13-.03.26-.1.38-.07.1-.17.18-.28.24-.11.06-.23.1-.36.11l-.38.03c-.27,0-.53-.03-.79-.08-.27-.06-.54-.14-.79-.24-.26-.1-.51-.22-.75-.35-.24-.13-.46-.27-.68-.43v2.93c.49.2.99.35,1.51.43.52.08,1.04.13,1.57.14.56,0,1.12-.06,1.67-.17.53-.1,1.03-.29,1.5-.56.44-.26.81-.62,1.08-1.06.29-.5.44-1.07.42-1.65Zm8.76,0c.02-.48-.09-.95-.32-1.38-.21-.37-.49-.69-.82-.96-.32-.26-.68-.48-1.07-.64-.38-.16-.73-.32-1.06-.49-.28-.14-.55-.3-.82-.47-.2-.12-.33-.33-.33-.57,0-.13.03-.26.11-.36.08-.1.19-.18.31-.24.12-.06.25-.1.39-.11.13-.01.26-.02.39-.04.46,0,.92.06,1.36.19.45.13.88.32,1.29.54v-2.74c-.5-.12-.99-.22-1.46-.29-.5-.08-1-.11-1.5-.11-.53,0-1.06.06-1.58.18-.5.11-.97.32-1.39.6-.41.28-.75.64-1,1.07-.27.48-.4,1.02-.39,1.57-.02.5.09,1,.32,1.44.2.36.47.68.79.94.31.25.66.45,1.03.61.37.16.71.31,1.03.44.28.12.54.27.79.44.2.14.32.38.32.62,0,.13-.03.26-.1.38-.07.1-.17.18-.28.24-.11.06-.23.1-.36.11l-.38.03c-.26,0-.52-.03-.78-.08-.27-.06-.54-.14-.81-.24-.26-.1-.52-.21-.76-.35-.23-.13-.46-.27-.67-.43v2.93c.49.2.99.35,1.51.43.52.08,1.04.13,1.57.14.56,0,1.12-.05,1.67-.15.53-.09,1.03-.28,1.49-.55.43-.27.8-.63,1.08-1.06.31-.5.45-1.08.42-1.67Zm-23.03-5.14c.04.32.09.66.17,1.01s.15.7.24,1.06.18.7.28,1.06.19.68.28.99h-2.04c.07-.29.16-.61.26-.96s.2-.71.29-1.08.18-.73.28-1.08c.09-.32.15-.65.18-.99h.07Zm-10.9-.01c.38-.02.76.08,1.08.29.3.25.46.64.42,1.03.04.37-.1.74-.36,1-.3.22-.66.33-1.03.32h-.72v-2.64h.61Z"/>
</svg>